<svg width="130" height="18" viewBox="0 0 130 18" fill="none" xmlns="http://www.w3.org/2000/svg">
<path fill-rule="evenodd" clip-rule="evenodd" d="M7.10892 5.16667C6.56724 4.33611 5.44198 3.78611 4.25111 3.78611C1.70882 3.78611 0 5.74722 0 8.66667C0 11.5861 1.59574 13.5472 4.06404 13.5472C5.29819 13.5472 6.57282 12.9611 7.10892 12.1639V13.3611H8.96992V0.25H7.10892V5.16667ZM4.51358 11.975H4.3642C2.82011 11.975 1.86239 10.7069 1.86239 8.66667C1.86239 6.62639 2.82151 5.35833 4.3642 5.35833H4.51358C5.76448 5.35833 7.10892 6.39305 7.10892 8.66667C7.10892 10.9403 5.76309 11.975 4.51358 11.975ZM11.0375 3.97222H12.8985V13.3611H11.0375V3.97222ZM10.944 0.25H12.9921V2.38056H10.944V0.25ZM21.5697 5.15556C21.1397 4.45278 20.154 3.78611 18.8054 3.78611C17.6481 3.78611 16.6052 4.2 15.8708 4.95C15.0457 5.79306 14.6101 7.04583 14.6101 8.57361C14.6101 12.1069 16.8704 13.3611 18.8054 13.3611C20.3816 13.3611 21.2248 12.4653 21.5697 11.9694V13.1333C21.5697 14.9069 20.6217 15.8833 18.899 15.8833H18.7119C17.3632 15.8833 16.4544 15.3736 16.2841 14.5208L16.2771 14.4875H14.4189L14.4245 14.5333C14.6255 16.3361 16.305 17.4556 18.8068 17.4556C21.5739 17.4556 23.4321 15.7931 23.4321 13.3194V3.97222H21.5711V5.15556H21.5697ZM19.0302 11.7889H18.8808C18.1562 11.7889 16.4725 11.475 16.4725 8.57361C16.4725 6.55972 17.4079 5.35833 18.9743 5.35833H19.1237C20.3397 5.35833 21.5697 6.4625 21.5697 8.57361C21.5697 10.6847 20.2615 11.7889 19.0302 11.7889ZM25.4048 3.97222H27.2658V13.3611H25.4048V3.97222ZM25.3112 0.25H27.3593V2.38056H25.3112V0.25ZM33.1545 11.6958H34.9736V13.3611H32.6868C31.3521 13.3611 30.5871 12.6 30.5871 11.2722V5.58194H28.5292V3.97222H30.5871V0.956944H32.4481V3.97222H34.693V5.58194H32.4481V10.9931C32.4481 11.525 32.6198 11.6958 33.1545 11.6958ZM44.0091 11.2722V7.36389C44.0091 5.58333 42.8225 3.78611 40.1699 3.78611C38.0325 3.78611 36.4618 4.98889 36.3488 6.70972L36.346 6.75417H38.2056L38.2098 6.71806C38.3089 5.89305 39.0488 5.35833 40.0945 5.35833H40.2439C41.4361 5.35833 42.1481 6.10833 42.1481 7.36389V7.62361L39.6045 7.825C38.3187 7.93611 36.1617 8.4625 36.1617 10.7514C36.1617 12.3722 37.4768 13.5472 39.2903 13.5472C40.752 13.5472 41.8131 12.775 42.2431 12.0042C42.2473 12.3306 42.264 12.9681 42.3366 13.3264L42.3436 13.3597H44.1097L44.1027 13.3125C44.0091 12.6639 44.0091 11.8264 44.0091 11.2708V11.2722ZM42.1481 9.96944C42.1481 11.05 40.7716 11.975 39.6463 11.975H39.497C38.6425 11.975 38.0241 11.4292 38.0241 10.6764C38.0241 9.92361 38.7263 9.34444 39.8558 9.24722L42.1495 9.06528V9.96944H42.1481ZM45.9832 0.25H47.8442V13.3611H45.9832V0.25ZM58.4462 7.72222L62.5507 13.3611H60.2583L60.2457 13.3444L57.1129 8.99167L55.869 10.1931V13.3625H54.008V0.25H55.869V7.93472L59.926 3.97222H62.386L58.4462 7.72222ZM92.282 7.08472V13.3611H90.421V7.45694C90.421 6.08333 89.7815 5.35833 88.5739 5.35833H88.4245C87.2867 5.35833 86.1098 6.3875 86.1098 8.10833V13.3611H84.2488V7.45694C84.2488 6.08333 83.6094 5.35833 82.4018 5.35833H82.2524C81.1146 5.35833 79.9377 6.3875 79.9377 8.10833V13.3611H78.0767V3.97222H79.9377V5.18333C80.5897 4.28056 81.5669 3.78611 82.702 3.78611C84.1316 3.78611 85.1982 4.36806 85.7901 5.47222C86.6599 4.00694 88.0923 3.78611 88.8755 3.78611C90.978 3.78611 92.2848 5.05 92.2848 7.08472H92.282ZM98.8813 3.78611C97.6458 3.78611 96.3725 4.37222 95.8364 5.16944V3.97222H93.9754V17.0833H95.8364V12.1667C96.3781 12.9972 97.5034 13.5472 98.6942 13.5472C101.237 13.5472 102.945 11.5861 102.945 8.66667C102.945 5.74722 101.35 3.78611 98.8813 3.78611ZM98.5825 11.975H98.4332C97.1823 11.975 95.8378 10.9403 95.8378 8.66667C95.8378 6.39305 97.1837 5.35833 98.4332 5.35833H98.5825C100.127 5.35833 101.084 6.62639 101.084 8.66667C101.084 10.7069 100.125 11.975 98.5825 11.975ZM111.945 11.2722V7.36389C111.945 5.58333 110.758 3.78611 108.105 3.78611C105.968 3.78611 104.397 4.98889 104.284 6.70972L104.281 6.75417H106.141L106.145 6.71806C106.244 5.89305 106.984 5.35833 108.03 5.35833H108.179C109.372 5.35833 110.084 6.10833 110.084 7.36389V7.62361L107.54 7.825C106.254 7.93611 104.097 8.4625 104.097 10.7514C104.097 12.3722 105.412 13.5472 107.226 13.5472C108.687 13.5472 109.749 12.775 110.179 12.0042C110.183 12.3306 110.199 12.9681 110.272 13.3264L110.279 13.3597H112.045L112.038 13.3125C111.945 12.6639 111.945 11.8264 111.945 11.2708V11.2722ZM110.084 9.96944C110.084 11.05 108.707 11.975 107.582 11.975H107.432C106.578 11.975 105.96 11.4292 105.96 10.6764C105.96 9.92361 106.662 9.34444 107.791 9.24722L110.085 9.06528V9.96944H110.084ZM118.168 7.72222L122.273 13.3611H119.981L119.968 13.3444L116.835 8.99167L115.591 10.1931V13.3625H113.73V0.25H115.591V7.93472L119.648 3.97222H122.108L118.168 7.72222ZM129.061 11.6958V13.3611H126.774C125.439 13.3611 124.674 12.6 124.674 11.2722V5.58194H122.616V3.97222H124.674V0.956944H126.535V3.97222H128.78V5.58194H126.535V10.9931C126.535 11.5319 126.7 11.6958 127.242 11.6958H129.061ZM67.8126 6.9C67.9829 7.06667 67.9829 7.33889 67.8126 7.50833C67.6451 7.67778 67.3714 7.67778 67.2011 7.50833C67.0308 7.34167 67.0308 7.06944 67.2011 6.9C67.3686 6.73056 67.6423 6.73056 67.8126 6.9ZM70.0645 6.9C70.2348 7.06667 70.2348 7.33889 70.0645 7.50833C69.8969 7.67778 69.6233 7.67778 69.453 7.50833C69.2827 7.34167 69.2827 7.06944 69.453 6.9C69.6205 6.73056 69.8942 6.73056 70.0645 6.9ZM72.3164 6.9C72.4867 7.06667 72.4867 7.33889 72.3164 7.50833C72.1489 7.67778 71.8752 7.67778 71.7049 7.50833C71.5346 7.34167 71.5346 7.06944 71.7049 6.9C71.8724 6.73056 72.1461 6.73056 72.3164 6.9ZM76.312 9.3875L76.3092 9.38472C76.2604 8.68611 75.9281 8.02361 75.3766 7.49444C75.4981 6.98889 75.5148 6.47222 75.4059 5.96111C75.1463 4.74861 74.2221 3.69444 72.8706 3.06806C70.2167 1.83889 66.591 2.525 64.7831 4.59306C64.0152 5.47222 63.6564 6.51806 63.7695 7.5375C63.877 8.50278 64.3963 9.39583 65.2396 10.0792L63.6369 14.1236C63.588 14.2472 63.6313 14.3903 63.7402 14.4653C63.789 14.5 63.8477 14.5167 63.9049 14.5167C63.9747 14.5167 64.0431 14.4903 64.099 14.4417L67.6241 11.2625C67.9675 11.8778 68.533 12.3806 69.2757 12.7278C70.5112 13.3056 72.0595 13.3625 73.4444 12.8917L75.5316 14.4597C75.5833 14.4972 75.6447 14.5167 75.7047 14.5167C75.7564 14.5167 75.8052 14.5028 75.8513 14.4764C75.9518 14.4167 76.0077 14.3042 75.9895 14.1889L75.5944 11.4708C76.1138 10.8361 76.3623 10.1181 76.3106 9.38472L76.312 9.3875ZM74.7875 7.49167L74.7847 7.48611C74.7847 7.48611 74.7791 7.49722 74.7763 7.50556C74.6325 7.99167 74.3756 8.45 74.0085 8.86944C73.9973 8.88194 73.9847 8.89444 73.9735 8.90694C73.9624 8.91944 73.9498 8.93194 73.9387 8.94444C73.9247 8.95972 73.9121 8.97361 73.8982 8.98889C73.8451 9.04583 73.7934 9.10278 73.7362 9.15694L73.7223 9.17083C72.7631 10.0819 71.3517 10.6556 69.8788 10.7819H69.8704C69.7378 10.7931 69.608 10.7986 69.4753 10.8056H69.0705C68.9783 10.8028 68.8862 10.7972 68.7968 10.7917L68.667 10.7833C68.5455 10.7722 68.4241 10.7569 68.3026 10.7403C68.2887 10.7403 68.2705 10.7375 68.2565 10.7347C68.1211 10.7153 67.9857 10.6889 67.8489 10.6597C67.7888 10.6486 67.7302 10.6361 67.6702 10.6222C67.578 10.5986 67.4761 10.6222 67.4077 10.6889L64.6295 13.1958L65.8594 10.0958C65.9083 9.975 65.8678 9.8375 65.7617 9.75972C64.945 9.15972 64.4424 8.35 64.3475 7.48194C64.2525 6.61111 64.5527 5.74444 65.2228 4.97778C66.3146 3.72778 68.1393 3.03333 69.9528 3.03333C70.8798 3.03333 71.8068 3.21389 72.6291 3.59583C73.8325 4.15278 74.6186 5.0375 74.8433 6.08611C74.9438 6.55139 74.9215 7.02778 74.7889 7.49028L74.7875 7.49167Z" fill="black"/>
</svg>
