<svg width="363" height="44" viewBox="0 0 363 44" fill="none" xmlns="http://www.w3.org/2000/svg">
    <path d="M310.712 11.8295V14.5705C310.712 14.5705 308.115 11.541 303.063 11.6852C295.27 11.8295 291.951 19.1869 291.951 26.6885C291.951 35.3443 294.26 41.8361 302.342 42.4131C307.97 42.8459 310.712 40.3935 310.712 40.3935V42.2689H318.938V11.8295H310.712ZM305.228 33.9016C302.486 33.9016 300.321 31.0164 300.321 27.5541C300.321 24.0918 302.486 21.2065 305.228 21.2065C307.97 21.2065 310.135 24.0918 310.135 27.5541C310.135 31.0164 307.97 33.9016 305.228 33.9016Z" fill="#2A2A2A"/>
    <path d="M7.07114 12.9836H0.432617V3.17377H24.9663V12.9836H17.7505V42.1245H7.21546L7.07114 12.9836Z" fill="#2A2A2A"/>
    <path d="M58.7365 36.3541L56.2831 42.1246H45.748L53.8298 26.8328L45.748 11.6852H55.5616L58.8808 16.4459L62.2001 11.6852H71.8693L63.9319 26.8328L72.1579 42.1246H61.7672L58.7365 36.3541Z" fill="#2A2A2A"/>
    <path d="M77.2092 30.8722V20.7738H73.457V11.6853H77.6422L78.7967 4.32788H87.0227L88.1773 11.6853H92.0738V20.6296H87.167V30.1509C87.167 32.0263 86.8784 32.7476 89.6204 32.7476H92.0738V42.1247C90.6306 42.2689 89.7647 42.2689 88.1773 42.2689C78.5081 42.4132 77.2092 39.5279 77.2092 30.8722Z" fill="#2A2A2A"/>
    <path d="M107.516 30.8721L107.66 4.47211H117.762L117.473 30.1507C117.473 32.0261 117.185 32.7475 119.927 32.7475H122.38V42.1245C120.937 42.2687 120.071 42.2687 118.484 42.2687C108.814 42.413 107.516 39.5278 107.516 30.8721Z" fill="#2A2A2A"/>
    <path d="M104.918 4.47211H94.8154V9.37702H104.918V4.47211Z" fill="#2A2A2A"/>
    <path d="M104.918 11.8295H94.8154V42.2688H104.918V11.8295Z" fill="#2A2A2A"/>
    <path d="M22.8018 26.9771C22.8018 18.7541 25.3994 11.3967 34.78 11.3967C43.1503 11.3967 45.315 17.3115 45.315 25.2459C45.315 26.8328 45.315 28.9967 45.1707 30.7279H32.1823C32.1823 33.6131 32.6152 34.1902 34.0584 34.1902C35.2129 34.1902 36.0788 33.6131 36.0788 31.882H45.0264C45.0264 41.5476 39.831 42.4131 33.9141 42.4131C25.3994 42.4131 22.8018 36.6426 22.8018 26.9771ZM36.6561 24.0918C36.6561 21.4951 36.0788 20.341 34.4913 20.341C32.9039 20.341 32.3266 21.4951 32.3266 24.0918H36.6561Z" fill="#2A2A2A"/>
    <path d="M121.081 4.47211H131.472L134.069 23.8032L137.677 13.8491L145.037 13.9934L148.79 23.9475L151.099 4.47211H160.768L154.562 42.1245H144.893L140.997 21.2065L137.1 42.1245H127.287L121.081 4.47211Z" fill="#2A2A2A"/>
    <path d="M198.001 30.8722V20.7738H194.249V11.6853H198.434L199.589 4.32788H207.815L208.825 11.6853H212.721V20.7738H207.959V30.1509C207.959 32.0263 207.67 32.7476 210.412 32.7476H212.866V42.1247C211.423 42.2689 210.557 42.2689 208.969 42.2689C199.3 42.4132 198.001 39.5279 198.001 30.8722Z" fill="#2A2A2A"/>
    <path d="M173.757 4.47211H163.077V9.37702H173.757V4.47211Z" fill="#2A2A2A"/>
    <path d="M173.757 11.8295H163.077V42.2688H173.757V11.8295Z" fill="#2A2A2A"/>
    <path d="M265.83 3.17377H275.932V13.7049C277.52 12.118 278.819 11.541 281.705 11.541C284.447 11.541 289.209 12.118 289.209 22.3606V42.1245H279.107V22.0721C279.107 22.0721 279.107 20.6295 277.664 20.6295C276.077 20.6295 276.077 22.0721 276.077 22.0721V42.1245H265.974L265.83 3.17377Z" fill="#2A2A2A"/>
    <path d="M346.647 30.8721V20.7737H342.895V11.6852H347.08L348.379 4.32788H356.605L357.615 11.6852H361.511V20.7737H356.605V30.1508C356.605 32.0262 356.316 32.7475 359.058 32.7475H361.367V42.1245C359.924 42.2688 359.058 42.413 357.47 42.413C347.946 42.413 346.647 39.5278 346.647 30.8721Z" fill="#2A2A2A"/>
    <path d="M321.68 11.8295H325.288V10.3869C325.288 3.4623 328.751 0.721313 337.266 0.721313C338.853 0.721313 339.864 0.865576 340.441 0.865576V8.07871H338.565C335.967 8.07871 335.245 10.0984 335.245 11.6853H340.441V20.7738H335.39V42.1247H325.432V20.9181H321.824V11.8295H321.68Z" fill="#2A2A2A"/>
    <path d="M239.853 26.977C239.853 19.4754 242.017 11.6852 251.831 11.6852C257.315 11.6852 263.232 15.0033 263.232 23.082H254.14C254.14 21.7836 253.563 20.6295 251.975 20.6295C249.81 20.6295 248.656 21.7836 248.656 26.977C248.656 31.5934 249.81 33.4688 251.975 33.4688C252.697 33.4688 254.14 33.0361 254.14 31.3049H263.232C263.809 40.3934 257.459 42.4131 251.542 42.4131C242.017 42.4131 239.853 35.4885 239.853 26.977Z" fill="#2A2A2A"/>
    <path d="M176.499 11.8295H185.013V14.5705C186.312 12.695 189.632 11.8295 191.652 11.8295V20.918C187.9 20.918 186.457 22.3606 186.457 25.2459V42.2688H176.354V11.8295H176.499Z" fill="#2A2A2A"/>
    <path d="M214.887 37.0754L220.659 32.459C222.103 33.7574 224.556 34.9115 226.576 34.6229C227.298 34.4787 227.875 33.7574 227.875 33.1803C227.875 30.0065 216.186 31.5934 216.186 21.2065C216.186 15.7246 220.226 11.541 227.875 11.541C233.215 11.541 236.39 14.4262 237.977 16.5901L232.06 22.0721C230.617 20.6295 228.597 20.1967 227.154 20.341C226.288 20.4852 225.999 21.0623 225.999 21.6393C225.999 25.1016 238.122 23.3705 237.833 33.6131C237.689 38.3738 234.514 42.5574 226.432 42.5574C220.082 42.4131 217.051 40.2492 214.887 37.0754Z" fill="#2A2A2A"/>
</svg>