<svg width="101" height="80" viewBox="0 0 101 80" fill="none" xmlns="http://www.w3.org/2000/svg">
<g clip-path="url(#clip0_21_60)">
<mask id="mask0_21_60" style="mask-type:luminance" maskUnits="userSpaceOnUse" x="0" y="0" width="101" height="80">
<path d="M101 0H0V80H101V0Z" fill="white"/>
</mask>
<g mask="url(#mask0_21_60)">
<path d="M2.07703 2.82195V4.53196H4.8606V6.12404H2.07703V7.97726H5.22663V9.62831H0V1.1709H5.22663V2.82195H2.07703Z" fill="#141F29"/>
<path d="M6.79286 1.90364C6.56302 1.69304 6.44385 1.43191 6.44385 1.11181C6.44385 0.791708 6.56302 0.522149 6.79286 0.311556C7.02269 0.100963 7.32063 -0.00854492 7.68666 -0.00854492C8.0527 -0.00854492 8.33361 0.100963 8.57196 0.311556C8.80179 0.522149 8.92097 0.791708 8.92097 1.11181C8.92097 1.43191 8.80179 1.68462 8.57196 1.90364C8.34212 2.11423 8.04419 2.22374 7.68666 2.22374C7.32914 2.22374 7.02269 2.11423 6.79286 1.90364ZM8.71667 2.90606V9.61976H6.63964V2.90606H8.71667Z" fill="#141F29"/>
<path d="M16.3181 3.59688C16.7948 4.1023 17.0332 4.80989 17.0332 5.69438V9.61983H14.9647V5.97237C14.9647 5.52591 14.8455 5.17211 14.6157 4.92783C14.3773 4.68354 14.0623 4.55718 13.6708 4.55718C13.2792 4.55718 12.9557 4.68354 12.7259 4.92783C12.4961 5.17211 12.3769 5.52591 12.3769 5.97237V9.61983H10.2998V2.90614H12.3769V3.79905C12.5897 3.50422 12.8706 3.26836 13.2281 3.09146C13.5856 2.92298 13.9857 2.83032 14.4284 2.83032C15.22 2.83032 15.8585 3.08303 16.3352 3.59688H16.3181Z" fill="#141F29"/>
<path d="M24.8731 6.75577H20.1657C20.1998 7.17696 20.336 7.48864 20.5743 7.71608C20.8127 7.93509 21.1106 8.0446 21.4596 8.0446C21.9789 8.0446 22.3364 7.82559 22.5407 7.39598H24.7539C24.6433 7.83401 24.439 8.23835 24.141 8.58372C23.8431 8.93752 23.4771 9.2155 23.0259 9.41767C22.5833 9.61984 22.081 9.72092 21.5277 9.72092C20.8638 9.72092 20.2679 9.57772 19.7486 9.29974C19.2294 9.02175 18.8208 8.61741 18.5313 8.09514C18.2419 7.57287 18.0972 6.96637 18.0972 6.2672C18.0972 5.56803 18.2419 4.96152 18.5313 4.43925C18.8208 3.91698 19.2209 3.51264 19.7401 3.23466C20.2594 2.95668 20.8552 2.81348 21.5277 2.81348C22.2002 2.81348 22.7705 2.94826 23.2813 3.22624C23.792 3.4958 24.1921 3.89171 24.4815 4.39713C24.771 4.90256 24.9157 5.49222 24.9157 6.16611C24.9157 6.35986 24.9072 6.56203 24.8816 6.7642L24.8731 6.75577ZM22.7876 5.61015C22.7876 5.25635 22.6684 4.97837 22.4215 4.76778C22.1747 4.55719 21.8767 4.4561 21.5107 4.4561C21.1447 4.4561 20.8723 4.55719 20.6254 4.75935C20.3871 4.96152 20.2423 5.24793 20.1828 5.61015H22.7876Z" fill="#141F29"/>
<path d="M38.272 1.1709V9.61988H36.195V4.55723L34.2881 9.61988H32.6112L30.6875 4.54038V9.61988H28.6104V1.1709H31.0704L33.4625 7.01696L35.8375 1.1709H38.2806H38.272Z" fill="#141F29"/>
<path d="M39.8127 4.43095C40.0766 3.90868 40.4341 3.50434 40.8853 3.22636C41.3364 2.94838 41.8472 2.80518 42.409 2.80518C42.8857 2.80518 43.3028 2.89784 43.6689 3.09158C44.0264 3.28533 44.3073 3.53804 44.5031 3.84972V2.89784H46.5801V9.61154H44.5031V8.65966C44.2988 8.97133 44.0179 9.22405 43.6603 9.41779C43.3028 9.61154 42.8772 9.7042 42.4005 9.7042C41.8472 9.7042 41.345 9.56099 40.8938 9.27459C40.4426 8.98818 40.0851 8.58384 39.8212 8.06157C39.5574 7.5393 39.4297 6.9328 39.4297 6.24205C39.4297 5.55131 39.5574 4.9448 39.8212 4.42253L39.8127 4.43095ZM44.0689 5.04588C43.7795 4.75105 43.4305 4.59943 43.0134 4.59943C42.5963 4.59943 42.2473 4.74263 41.9579 5.03746C41.6684 5.33229 41.5237 5.73663 41.5237 6.25047C41.5237 6.76432 41.6684 7.16866 41.9579 7.47191C42.2473 7.77517 42.5963 7.92679 43.0134 7.92679C43.4305 7.92679 43.7795 7.77517 44.0689 7.48034C44.3584 7.18551 44.5031 6.78117 44.5031 6.26732C44.5031 5.75348 44.3584 5.34914 44.0689 5.05431V5.04588Z" fill="#141F29"/>
<path d="M51.1343 3.15042C51.5004 2.93983 51.9004 2.83032 52.3516 2.83032V5.01206H51.7813C51.262 5.01206 50.8704 5.12157 50.6151 5.34059C50.3597 5.55961 50.2235 5.9471 50.2235 6.50306V9.61983H48.1465V2.90614H50.2235V4.02649C50.4704 3.65585 50.7683 3.36944 51.1343 3.15042Z" fill="#141F29"/>
<path d="M57.6207 9.61993L55.5521 6.80641V9.61993H53.4751V0.716064H55.5521V5.63551L57.6036 2.90623H60.1659L57.3483 6.27571L60.1914 9.61993H57.6121H57.6207Z" fill="#141F29"/>
<path d="M67.1035 6.75577H62.3962C62.4302 7.17696 62.5664 7.48864 62.8048 7.71608C63.0431 7.93509 63.341 8.0446 63.69 8.0446C64.2093 8.0446 64.5668 7.82559 64.7711 7.39598H66.9844C66.8737 7.83401 66.6694 8.23835 66.3715 8.58372C66.0735 8.93752 65.7075 9.2155 65.2563 9.41767C64.8137 9.61984 64.3115 9.72092 63.7581 9.72092C63.0942 9.72092 62.4983 9.57772 61.979 9.29974C61.4598 9.02175 61.0512 8.61741 60.7618 8.09514C60.4723 7.57287 60.3276 6.96637 60.3276 6.2672C60.3276 5.56803 60.4723 4.96152 60.7618 4.43925C61.0512 3.91698 61.4513 3.51264 61.9705 3.23466C62.4898 2.95668 63.0857 2.81348 63.7581 2.81348C64.4306 2.81348 65.001 2.94826 65.5117 3.22624C66.0225 3.4958 66.4225 3.89171 66.712 4.39713C67.0014 4.90256 67.1461 5.49222 67.1461 6.16611C67.1461 6.35986 67.1376 6.56203 67.112 6.7642L67.1035 6.75577ZM65.0095 5.61015C65.0095 5.25635 64.8903 4.97837 64.6434 4.76778C64.3966 4.55719 64.0986 4.4561 63.7326 4.4561C63.3666 4.4561 63.0942 4.55719 62.8473 4.75935C62.609 4.96152 62.4643 5.24793 62.4047 5.61015H65.0095Z" fill="#141F29"/>
<path d="M70.8149 4.43092C71.0788 3.90865 71.4363 3.50431 71.8875 3.22633C72.3386 2.94835 72.8494 2.80515 73.4112 2.80515C73.8538 2.80515 74.2624 2.89781 74.637 3.08313C75.003 3.26845 75.2924 3.51274 75.5053 3.83284V0.716064H77.5823V9.61993H75.5053V8.65963C75.3095 8.97973 75.0371 9.24086 74.671 9.42618C74.305 9.6115 73.8879 9.71259 73.4112 9.71259C72.8494 9.71259 72.3471 9.56939 71.8875 9.28298C71.4363 8.99657 71.0788 8.59224 70.8149 8.06997C70.551 7.5477 70.4233 6.94119 70.4233 6.25044C70.4233 5.5597 70.551 4.95319 70.8149 4.43092ZM75.0711 5.04585C74.7817 4.75102 74.4327 4.5994 74.0156 4.5994C73.5985 4.5994 73.2495 4.7426 72.96 5.03743C72.6706 5.33226 72.5259 5.7366 72.5259 6.25044C72.5259 6.76429 72.6706 7.16863 72.96 7.47188C73.2495 7.77514 73.5985 7.92676 74.0156 7.92676C74.4327 7.92676 74.7817 7.77514 75.0711 7.48031C75.3605 7.18548 75.5053 6.78114 75.5053 6.26729C75.5053 5.75344 75.3605 5.34911 75.0711 5.05428V5.04585Z" fill="#141F29"/>
<path d="M85.4819 6.75577H80.7747C80.8087 7.17696 80.9449 7.48864 81.1833 7.71608C81.4216 7.93509 81.7195 8.0446 82.0685 8.0446C82.5878 8.0446 82.9453 7.82559 83.1496 7.39598H85.3629C85.2522 7.83401 85.0479 8.23835 84.75 8.58372C84.452 8.93752 84.086 9.2155 83.6348 9.41767C83.1922 9.61984 82.6899 9.72092 82.1366 9.72092C81.4727 9.72092 80.8768 9.57772 80.3575 9.29974C79.8383 9.02175 79.4297 8.61741 79.1403 8.09514C78.8508 7.57287 78.7061 6.96637 78.7061 6.2672C78.7061 5.56803 78.8508 4.96152 79.1403 4.43925C79.4297 3.91698 79.8298 3.51264 80.349 3.23466C80.8683 2.95668 81.4642 2.81348 82.1366 2.81348C82.8091 2.81348 83.3795 2.94826 83.8902 3.22624C84.401 3.4958 84.801 3.89171 85.0905 4.39713C85.3799 4.90256 85.5246 5.49222 85.5246 6.16611C85.5246 6.35986 85.5161 6.56203 85.4905 6.7642L85.4819 6.75577ZM83.3965 5.61015C83.3965 5.25635 83.2772 4.97837 83.0303 4.76778C82.7835 4.55719 82.4857 4.4561 82.1196 4.4561C81.7536 4.4561 81.4812 4.55719 81.2343 4.75935C80.996 4.96152 80.8512 5.24793 80.7916 5.61015H83.3965Z" fill="#141F29"/>
<path d="M89.67 3.15042C90.036 2.93983 90.4361 2.83032 90.8873 2.83032V5.01206H90.3169C89.7977 5.01206 89.4061 5.12157 89.1507 5.34059C88.8954 5.55961 88.7592 5.9471 88.7592 6.50306V9.61983H86.6821V2.90614H88.7592V4.02649C89.006 3.65585 89.304 3.36944 89.67 3.15042Z" fill="#141F29"/>
<path d="M0 75.0215L11.8578 80.0083V65.5785C11.8578 63.759 12.9815 62.2933 14.8201 62.2933C16.6588 62.2933 17.7825 63.759 17.7825 65.5785V80.0083L29.6403 75.0215V64.5255C29.6403 56.7252 23.5369 50.6854 15.6544 50.6854C14.4115 50.6854 13.1687 50.8876 11.8578 51.275V38.0751L0 33.0798V75.0215Z" fill="#141F29"/>
<path d="M41.4897 41.2172H44.3329V48.1667L44.9117 45.8839C45.4906 45.269 46.2652 44.9489 47.3718 44.9489C49.7723 44.9489 51.0322 46.541 51.0322 49.3713V55.2932H48.189V49.9863C48.189 48.2425 47.6868 47.5518 46.3929 47.5518C45.099 47.5518 44.3414 48.4868 44.3414 50.1716V55.2848H41.4982V41.2087L41.4897 41.2172Z" fill="#141F29"/>
<path d="M52.6494 50.3149C52.6494 47.2318 54.7605 44.949 57.7228 44.949C59.0763 44.949 60.1233 45.446 60.8554 46.2125V45.328H63.6986V50.7698L65.2308 55.2933H62.2344L61.0937 51.7132L60.9235 54.2993C60.2255 55.0827 59.221 55.5797 57.7484 55.5797C54.786 55.5797 52.6579 53.339 52.6579 50.3149H52.6494ZM60.9576 50.3149C60.9576 48.5375 59.6637 47.5014 58.3102 47.5014C56.8546 47.5014 55.6203 48.5712 55.6203 50.3149C55.6203 52.0586 56.8631 53.0357 58.3102 53.0357C59.6637 53.0357 60.9576 52.0417 60.9576 50.3149Z" fill="#141F29"/>
<path d="M66.5161 51.6288V45.3279H69.3593V51.2834C69.3593 52.547 69.8785 53.1619 70.9681 53.1619C72.3386 53.1619 73.0196 51.991 73.0196 50.3653V45.3279H75.8628V51.8563L77.0034 55.2847H74.0071L73.0196 52.1258V54.2739C72.4748 54.9983 71.7002 55.5795 70.2531 55.5795C67.9462 55.5795 66.5161 54.0885 66.5161 51.6372V51.6288Z" fill="#141F29"/>
<path d="M83.1069 40.8298C83.7454 40.8298 84.3668 40.872 84.9626 41.0236V43.3822C84.537 43.2896 84.0944 43.2474 83.6688 43.2474C82.9537 43.2474 82.5451 43.6686 82.5451 44.4941V45.3365H85.2946V47.6952H82.5451V55.3018H79.702V47.6952H77.8633V45.3365H79.702V44.4015C79.702 42.3293 81.0554 40.8383 83.1069 40.8383V40.8298Z" fill="#141F29"/>
<path d="M86.3161 50.3486C86.3161 47.2065 88.4612 44.949 91.4832 44.949C94.5051 44.949 96.2671 47.0549 96.2671 50.1043C96.2671 50.4497 96.2501 50.7361 96.1905 51.1572H89.338C89.5679 52.7493 90.4617 53.28 91.696 53.28C92.9303 53.28 93.6283 52.7999 94.1305 51.7301L96.1224 53.5496C95.0924 54.9058 93.5091 55.5797 91.5938 55.5797C88.2825 55.5797 86.3076 53.398 86.3076 50.3486H86.3161ZM93.2452 49.2366V49.1945C93.2452 48.0657 92.6238 47.2402 91.4065 47.2402C90.3595 47.2402 89.5849 47.8299 89.355 49.2282H93.2452V49.2366Z" fill="#141F29"/>
<path d="M101 54.5435V55.2847H97.7485V52.0669H101V54.5435Z" fill="#141F29"/>
<path d="M40.9365 72.5956L43.32 71.1046C43.7286 72.3092 44.716 72.9831 46.1035 72.9831C47.789 72.9831 48.836 71.9891 48.836 70.4138V67.3645L48.121 70.0264C47.6528 70.3296 46.7675 70.616 45.8737 70.616C42.9114 70.616 40.9365 68.4932 40.9365 65.6376C40.9365 62.782 42.9114 60.5581 45.8737 60.5581C47.1335 60.5581 48.121 60.9961 48.836 61.7037V60.9372H51.6792V70.5908C51.6792 73.4801 49.5085 75.2996 46.0695 75.2996C43.5157 75.2996 41.6941 74.3225 40.9365 72.5787V72.5956ZM48.9297 65.6376C48.9297 63.9697 47.789 63.1105 46.4355 63.1105C44.9799 63.1105 43.8988 64.0708 43.8988 65.6376C43.8988 67.2044 44.9799 68.0721 46.4355 68.0721C47.789 68.0721 48.9297 67.137 48.9297 65.6376Z" fill="#141F29"/>
<path d="M53.8411 60.9456H56.6842V64.1634L57.263 61.5016C57.5525 61.173 58.2335 60.6592 59.1188 60.6592C59.5614 60.6592 59.8508 60.7013 60.2424 60.8529V63.5906C59.7231 63.4222 59.3486 63.3379 58.7868 63.3379C57.4673 63.3379 56.6757 64.433 56.6757 66.1177V70.9024H53.8325V60.9456H53.8411Z" fill="#141F29"/>
<path d="M61.1025 65.8819C61.1025 62.782 63.4434 60.5581 66.6611 60.5581C69.8788 60.5581 72.2197 62.782 72.2197 65.8819C72.2197 68.9818 69.8788 71.1888 66.6611 71.1888C63.4434 71.1888 61.1025 68.965 61.1025 65.8819ZM69.2489 65.8819C69.2489 64.1803 68.1253 63.1442 66.6526 63.1442C65.18 63.1442 64.0563 64.1803 64.0563 65.8819C64.0563 67.5835 65.18 68.6028 66.6526 68.6028C68.1253 68.6028 69.2489 67.5666 69.2489 65.8819Z" fill="#141F29"/>
<path d="M73.7432 67.2465V60.9456H76.5863V66.9011C76.5863 68.1647 77.1056 68.7796 78.1952 68.7796C79.5657 68.7796 80.2467 67.6087 80.2467 65.9829V60.9456H83.0898V67.4739L84.2305 70.9024H81.2341L80.2467 67.7435V69.8915C79.7019 70.616 78.9272 71.1972 77.4801 71.1972C75.1733 71.1972 73.7432 69.7062 73.7432 67.2549V67.2465Z" fill="#141F29"/>
<path d="M85.7202 60.9455H88.5634V61.83C89.2954 61.0634 90.3425 60.5664 91.6959 60.5664C94.6583 60.5664 96.7693 62.8492 96.7693 65.9323C96.7693 69.0154 94.6412 71.1971 91.6789 71.1971C90.6915 71.1971 89.9594 71.0034 89.2954 70.5822L88.5634 67.9372V75.0215H85.7202V60.9455ZM93.807 65.9239C93.807 64.1802 92.5642 63.1104 91.1171 63.1104C89.7636 63.1104 88.4697 64.1465 88.4697 65.9239C88.4697 67.7013 89.7636 68.6447 91.1171 68.6447C92.5727 68.6447 93.807 67.6086 93.807 65.9239Z" fill="#141F29"/>
</g>
</g>
<defs>
<clipPath id="clip0_21_60">
<rect width="101" height="80" fill="white"/>
</clipPath>
</defs>
</svg>
