<svg fill="none" height="150" viewBox="0 0 176 150" width="176" xmlns="http://www.w3.org/2000/svg" xmlns:xlink="http://www.w3.org/1999/xlink"><clipPath id="a"><path d="m0 .357422h176v149.286h-176z"/></clipPath><g clip-path="url(#a)"><path clip-rule="evenodd" d="m87.8926 103.517 88.0004-52.8759v-50.283678l-88.0004 55.467578-88.00002-55.467578-.000002 50.283678zm-88.00002 46.126-.000002-45.671 176.000422-.001v45.672zm10.0863-30.322h.00026 4.35186.0002v16.55h-.0002-4.35186-.00026zm14.22512 16.55-5.2852-8.275 5.2855-8.275h-.0003-4.7913-.0002l-5.0386 8.275h.0003l5.0383 8.275h.0002zm24.3804-13.547c1.1163 0 2.1112.364 2.3053 2.018h4.2465c-.4125-3.77-2.742-5.375-6.4547-5.375-4.0524 0-6.479 2.14-6.479 5.059 0 2.505 1.4559 3.989 4.1009 4.67l3.1546.827c1.1648.316 1.82.803 1.82 1.654 0 1.022-1.0677 1.654-2.4752 1.654-1.6015 0-2.4266-.535-2.6935-2.165h-4.2708c.2912 4.232 2.9119 5.57 7.0371 5.57 3.9311 0 6.6974-2.067 6.6974-5.254 0-2.481-1.5287-4.061-4.295-4.791l-2.7906-.73c-1.2376-.316-1.9656-.827-1.9656-1.727 0-.851.7523-1.41 2.0626-1.41zm-7.6036 13.547h-4.5134l-.7523-2.894h-5.0473l-.7522 2.894h-4.5135l5.5569-16.539h4.7804zm-7.6195-11.602h-.097l-1.5288 5.205h3.009zm120.7687 11.602h11.89.001v-3.454h-.001-7.643v-3.332h6.527v-3.454h-6.527v-2.845h7.643.001v-3.454h-.001-11.89zm-87.766-11.529c-.1941-1.654-1.1891-2.018-2.3053-2.018-1.3103 0-2.0626.559-2.0626 1.41 0 .9.728 1.411 1.9656 1.727l2.7905.73c2.7664.73 4.2951 2.31 4.2951 4.791 0 3.187-2.7663 5.254-6.6974 5.254-4.1252 0-6.7459-1.338-7.0371-5.57h4.2708c.2669 1.63 1.092 2.165 2.6935 2.165 1.4074 0 2.4751-.632 2.4751-1.654 0-.851-.6551-1.338-1.8199-1.654l-3.1546-.827c-2.645-.681-4.1009-2.165-4.1009-4.67 0-2.919 2.4266-5.059 6.479-5.059 3.7127 0 6.0422 1.605 6.4547 5.375zm7.0941 11.529h11.8903v-3.454h-7.6437v-3.332h6.5275v-3.454h-6.5275v-2.845h7.6437v-3.454h-11.8903zm21.4805-16.539 2.4994 11.14h.0971v-11.14h4.1739v16.539h-6.5277l-2.4994-11.091h-.0971v11.091h-4.1737v-16.539zm22.5274 12.842h-7.304l7.401-9.486v-3.356h-12.619v3.697h6.892l-7.28 9.486v3.356h12.91zm9.652-13.207c4.271 0 7.717 2.408 7.717 8.635 0 6.226-3.446 8.634-7.717 8.634-4.246 0-7.692-2.408-7.692-8.634 0-6.227 3.446-8.635 7.692-8.635zm-3.203 11.188c0 1.776 1.432 2.554 3.203 2.554 1.796 0 3.228-.778 3.228-2.554v-5.107c0-1.776-1.432-2.554-3.228-2.554-1.771 0-3.203.778-3.203 2.554zm22.62.317-2.499-11.14h-6.528v16.539h4.174v-11.091h.097l2.5 11.091h6.527v-16.539h-4.174v11.14z" fill="#2a1335" fill-rule="evenodd"/></g></svg>